<?xml version="1.0" standalone="no"?>
<!DOCTYPE svg PUBLIC "-//W3C//DTD SVG 20010904//EN"
 "http://www.w3.org/TR/2001/REC-SVG-20010904/DTD/svg10.dtd">
<svg version="1.0" xmlns="http://www.w3.org/2000/svg"
 width="1040.000000pt" height="1040.000000pt" viewBox="0 0 1040.000000 1040.000000"
 preserveAspectRatio="xMidYMid meet">
<metadata>
Created by potrace 1.14, written by Peter Selinger 2001-2017
</metadata>
<g transform="translate(0.000000,1040.000000) scale(0.100000,-0.100000)"
fill="#000000" stroke="none">
<path d="M5028 10395 c-2 -1 -30 -5 -63 -8 -93 -10 -146 -17 -195 -28 -25 -5
-56 -12 -70 -14 -21 -4 -46 -10 -90 -20 -98 -24 -280 -90 -397 -146 -46 -22
-84 -38 -86 -37 -2 2 -10 -2 -18 -8 -8 -7 -31 -21 -51 -33 -21 -12 -53 -29
-70 -40 -42 -24 -160 -102 -174 -115 -7 -6 -24 -20 -40 -31 -39 -28 -70 -54
-116 -97 -22 -21 -42 -38 -43 -38 -3 0 -75 -71 -75 -74 0 -1 -23 -27 -51 -57
-48 -50 -120 -140 -144 -178 -5 -9 -12 -18 -15 -21 -27 -27 -147 -230 -183
-310 -14 -30 -35 -77 -47 -105 -13 -27 -23 -56 -23 -62 0 -7 -4 -13 -9 -13 -4
0 -7 -3 -7 -7 1 -5 0 -10 -1 -13 -1 -3 -3 -12 -5 -20 -2 -8 -11 -37 -20 -64
-9 -26 -19 -58 -21 -70 -7 -27 -10 -38 -17 -56 -3 -8 -9 -31 -12 -50 -3 -19
-9 -51 -13 -70 -5 -19 -9 -38 -10 -42 -1 -5 -2 -9 -3 -10 0 -2 -2 -21 -4 -43
-1 -22 -4 -40 -5 -40 -8 0 -11 -150 -15 -689 -2 -340 -5 -620 -7 -622 -2 -2
-22 -6 -44 -9 -41 -7 -68 -12 -107 -20 -12 -3 -31 -7 -42 -9 -95 -19 -334 -93
-349 -107 -6 -5 -16 -9 -24 -9 -44 0 -349 -165 -487 -264 -159 -113 -362 -308
-460 -441 -17 -22 -32 -42 -35 -45 -3 -3 -23 -32 -45 -65 -22 -33 -42 -62 -45
-65 -3 -3 -16 -25 -29 -50 -13 -25 -30 -52 -36 -60 -7 -8 -16 -26 -20 -40 -4
-14 -14 -32 -22 -42 -8 -9 -16 -22 -17 -30 -2 -7 -8 -24 -14 -38 -36 -84 -69
-166 -71 -175 -1 -5 -13 -45 -26 -87 -14 -43 -27 -88 -29 -100 -3 -13 -7 -34
-10 -48 -24 -112 -29 -139 -30 -165 -1 -16 -4 -34 -7 -40 -14 -27 -19 -440 -6
-560 15 -139 20 -177 41 -285 2 -8 6 -26 9 -40 4 -14 9 -36 11 -50 4 -22 41
-169 50 -195 1 -5 11 -37 21 -70 9 -33 20 -64 23 -70 3 -5 7 -16 8 -25 2 -17
47 -137 69 -187 8 -17 15 -34 15 -37 0 -18 141 -319 177 -378 13 -21 21 -38
18 -38 -2 0 9 -21 25 -47 17 -26 30 -53 30 -60 0 -7 5 -13 10 -13 6 0 10 -5
10 -10 0 -6 22 -47 50 -91 27 -44 50 -82 50 -84 0 -7 142 -217 231 -341 80
-113 273 -359 341 -435 13 -15 34 -40 48 -56 72 -87 225 -249 400 -423 190
-190 232 -230 374 -355 37 -33 78 -69 90 -80 27 -25 119 -103 154 -130 22 -18
131 -108 187 -154 11 -9 36 -27 55 -41 19 -13 37 -27 40 -30 7 -9 249 -189
310 -230 28 -19 59 -42 69 -50 9 -8 28 -21 42 -28 14 -8 38 -24 54 -38 15 -13
36 -26 46 -29 11 -4 19 -11 19 -16 0 -5 7 -9 15 -9 8 0 15 -4 15 -10 0 -5 6
-10 13 -10 7 0 23 -9 35 -20 12 -11 24 -20 27 -20 3 0 33 -18 66 -40 33 -22
65 -40 70 -40 5 0 9 -4 9 -10 0 -5 4 -10 9 -10 5 0 45 -22 88 -48 136 -84 419
-233 523 -275 25 -10 54 -23 65 -28 67 -30 127 -46 200 -55 54 -6 166 24 272
72 62 29 95 41 107 42 5 0 12 4 15 9 3 4 55 33 115 63 61 30 142 74 180 97 39
24 75 43 79 43 4 0 13 5 20 10 7 6 90 59 184 118 95 59 182 115 193 124 11 10
20 15 20 12 0 -3 20 10 44 28 25 18 84 60 132 93 47 33 101 71 119 85 18 14
43 32 55 40 33 23 182 137 205 157 11 10 32 26 46 35 14 9 32 23 40 30 8 8 59
50 114 95 55 44 111 91 125 103 14 12 45 38 69 58 24 21 58 51 76 67 18 17 72
66 121 110 102 91 449 437 539 536 71 79 147 165 172 195 10 12 34 41 55 65
72 87 158 196 225 284 64 84 93 126 93 134 0 6 6 14 13 18 21 13 297 440 297
459 0 3 11 22 25 44 31 50 138 261 141 279 2 8 8 17 14 21 7 4 11 9 10 11 -1
2 6 22 15 44 10 22 19 42 19 45 1 3 9 21 18 40 9 19 26 62 39 95 13 33 26 65
30 70 4 6 10 26 14 45 4 19 11 40 15 45 9 13 73 217 86 278 1 4 2 8 4 10 1 1
3 9 5 17 2 8 8 38 15 65 6 28 14 61 16 75 3 14 10 45 15 70 6 25 13 65 16 90
3 25 6 56 8 70 2 14 4 25 5 25 13 0 19 476 7 570 -4 33 -10 80 -13 105 -3 25
-12 77 -21 115 -8 39 -17 80 -18 92 -3 20 -18 70 -35 118 -4 11 -15 45 -25 75
-10 30 -23 66 -28 80 -6 14 -11 27 -12 30 -3 12 -66 146 -75 160 -6 8 -14 25
-20 37 -18 43 -112 188 -182 280 -66 88 -237 270 -318 338 -109 92 -268 205
-288 205 -7 0 -12 4 -12 8 0 11 -144 88 -270 145 -37 17 -165 65 -190 72 -8 2
-34 10 -58 19 -23 8 -46 16 -50 17 -4 1 -11 3 -17 5 -26 8 -245 54 -279 59
-22 3 -41 7 -43 9 -2 2 -5 282 -7 622 -2 341 -7 639 -10 664 -10 68 -15 102
-21 130 -34 168 -32 159 -35 163 -1 1 -3 10 -5 21 -2 10 -15 55 -30 100 -76
234 -211 488 -354 666 -20 24 -43 53 -51 64 -19 25 -239 244 -273 272 -225
185 -533 351 -801 431 -56 17 -49 15 -171 44 -97 22 -104 24 -180 34 -27 4
-61 9 -75 11 -29 5 -427 14 -432 9z m372 -779 c19 -3 49 -8 65 -10 58 -10 230
-57 272 -76 24 -10 43 -17 43 -15 0 9 261 -135 280 -155 3 -3 23 -18 45 -35
58 -43 59 -44 138 -120 40 -38 90 -92 112 -120 22 -27 42 -52 45 -55 27 -25
176 -300 163 -300 -3 0 -1 -6 4 -12 11 -14 51 -130 58 -169 2 -13 9 -44 14
-69 6 -25 13 -63 17 -85 4 -22 8 -310 8 -640 l1 -599 -120 -27 c-66 -14 -120
-27 -120 -27 0 0 -20 -5 -45 -12 -25 -6 -83 -25 -130 -42 -47 -16 -89 -31 -95
-32 -5 -2 -27 -10 -47 -20 -21 -9 -42 -16 -48 -16 -5 0 -10 -4 -10 -10 0 -5
-5 -10 -10 -10 -6 0 -27 -7 -48 -17 -20 -9 -40 -15 -44 -15 -5 1 -8 -2 -8 -8
0 -5 -4 -10 -10 -10 -14 0 -204 -111 -208 -121 -2 -5 -8 -9 -14 -9 -6 0 -37
-19 -70 -42 -126 -91 -225 -176 -350 -303 -54 -54 -98 -94 -98 -88 0 16 -208
223 -281 278 -175 134 -204 154 -239 171 -8 4 -17 10 -20 14 -20 25 -284 158
-395 199 -33 13 -67 26 -75 30 -17 9 -211 67 -250 75 -14 3 -45 10 -69 16 -24
6 -50 9 -58 6 -7 -3 -13 -1 -13 4 0 5 -12 10 -27 12 l-28 3 0 580 c1 593 4
665 30 770 9 33 17 69 19 80 2 11 5 21 6 23 1 1 3 5 5 10 1 4 5 21 10 37 4 17
11 35 15 40 4 6 17 37 30 70 13 33 31 71 40 85 9 14 25 42 35 63 45 87 178
246 291 347 52 47 181 140 194 140 5 0 10 5 10 10 0 6 5 10 11 10 6 0 23 8 37
18 35 23 218 106 229 103 2 0 27 8 55 19 54 19 114 34 184 46 22 3 59 9 84 13
49 9 324 6 380 -3z m-145 -5256 c0 -1 7 -3 15 -5 77 -16 149 -81 178 -160 18
-47 19 -83 17 -615 -1 -507 -3 -569 -18 -602 -10 -21 -21 -38 -25 -38 -4 0
-16 -14 -27 -30 -11 -16 -26 -30 -32 -30 -7 0 -13 -4 -13 -9 0 -15 -98 -43
-150 -43 -88 0 -166 37 -212 101 -56 79 -55 60 -54 671 l1 565 23 46 c26 54
54 89 71 89 6 0 11 4 11 9 0 11 65 42 103 50 24 5 112 6 112 1z"/>
</g>
</svg>
