<svg xmlns="http://www.w3.org/2000/svg" fill="none" viewBox="0 0 53 65"><path fill="#FFF705" d="M45.12 21.55c-1.4-.65-2.9-1.1-4.45-1.31v-6.6c0-4.87-2.7-9.38-7.09-11.81a14.64 14.64 0 0 0-14.16 0 13.56 13.56 0 0 0-7.09 11.81v6.6c-1.54.21-3.04.66-4.45 1.31-5.5 2.64-10.46 9.4-6.38 19.8C6.83 54.9 23.98 65 26.5 65c2.52 0 19.67-10.1 25-23.66 4.08-10.4-.88-17.15-6.38-19.79ZM26.5 4.82c2.43 0 4.76.93 6.48 2.59a8.68 8.68 0 0 1 2.69 6.23v6.65a15.32 15.32 0 0 0-9.17 5.07 15.32 15.32 0 0 0-9.17-5.07v-6.65c0-2.34.97-4.58 2.7-6.23a9.37 9.37 0 0 1 6.47-2.6Zm1.67 40.92c0 .89-.75 1.6-1.67 1.6-.92 0-1.67-.71-1.67-1.6v-6.42c0-.88.75-1.6 1.67-1.6.92 0 1.67.72 1.67 1.6v6.42Z"/></svg>